<mxfile host="app.diagrams.net" modified="2021-04-25T06:47:37.750Z" agent="5.0 (Macintosh; Intel Mac OS X 11_2_3) AppleWebKit/537.36 (KHTML, like Gecko) Chrome/89.0.4389.128 Safari/537.36" etag="RurCslEcI2xafPloEJu2" version="14.6.6" type="github">
  <diagram id="LdA-1L0uCgT_CVbXWtCU" name="Page-1">
    <mxGraphModel dx="1430" dy="769" grid="1" gridSize="10" guides="1" tooltips="1" connect="1" arrows="1" fold="1" page="1" pageScale="1" pageWidth="827" pageHeight="1169" math="0" shadow="0">
      <root>
        <mxCell id="0" />
        <mxCell id="1" parent="0" />
        <mxCell id="Rn8A0Fxg7lWSqy2aSkI7-1" value="VPC&lt;br&gt;10.1.0.0/16" style="outlineConnect=0;gradientColor=none;html=1;whiteSpace=wrap;fontSize=12;fontStyle=0;shape=mxgraph.aws4.group;grIcon=mxgraph.aws4.group_vpc;strokeColor=#879196;fillColor=none;verticalAlign=top;align=left;spacingLeft=30;fontColor=#879196;dashed=0;" vertex="1" parent="1">
          <mxGeometry x="119" y="244" width="551" height="761" as="geometry" />
        </mxCell>
        <mxCell id="Rn8A0Fxg7lWSqy2aSkI7-2" value="us-west-2a" style="outlineConnect=0;gradientColor=none;html=1;whiteSpace=wrap;fontSize=12;fontStyle=0;shape=mxgraph.aws4.group;grIcon=mxgraph.aws4.group_availability_zone;strokeColor=#545B64;fillColor=none;verticalAlign=top;align=left;spacingLeft=30;fontColor=#545B64;dashed=1;" vertex="1" parent="1">
          <mxGeometry x="215.5" y="211" width="149" height="816" as="geometry" />
        </mxCell>
        <mxCell id="Rn8A0Fxg7lWSqy2aSkI7-5" value="10.1.3.0/24&lt;br&gt;subnet_03" style="outlineConnect=0;gradientColor=none;html=1;whiteSpace=wrap;fontSize=12;fontStyle=0;shape=mxgraph.aws4.group;grIcon=mxgraph.aws4.group_subnet;strokeColor=#879196;fillColor=none;verticalAlign=top;align=left;spacingLeft=30;fontColor=#879196;dashed=0;" vertex="1" parent="1">
          <mxGeometry x="220.5" y="518" width="139.5" height="229" as="geometry" />
        </mxCell>
        <mxCell id="Rn8A0Fxg7lWSqy2aSkI7-82" value="EC2 instance contents" style="points=[[0,0],[0.25,0],[0.5,0],[0.75,0],[1,0],[1,0.25],[1,0.5],[1,0.75],[1,1],[0.75,1],[0.5,1],[0.25,1],[0,1],[0,0.75],[0,0.5],[0,0.25]];outlineConnect=0;gradientColor=none;html=1;whiteSpace=wrap;fontSize=12;fontStyle=0;shape=mxgraph.aws4.group;grIcon=mxgraph.aws4.group_ec2_instance_contents;strokeColor=#D86613;fillColor=none;verticalAlign=top;align=left;spacingLeft=30;fontColor=#D86613;dashed=0;" vertex="1" parent="1">
          <mxGeometry x="222" y="580" width="130" height="130" as="geometry" />
        </mxCell>
        <mxCell id="Rn8A0Fxg7lWSqy2aSkI7-3" value="us-west-2b" style="outlineConnect=0;gradientColor=none;html=1;whiteSpace=wrap;fontSize=12;fontStyle=0;shape=mxgraph.aws4.group;grIcon=mxgraph.aws4.group_availability_zone;strokeColor=#545B64;fillColor=none;verticalAlign=top;align=left;spacingLeft=30;fontColor=#545B64;dashed=1;" vertex="1" parent="1">
          <mxGeometry x="490.99" y="211" width="156.51" height="813" as="geometry" />
        </mxCell>
        <mxCell id="Rn8A0Fxg7lWSqy2aSkI7-6" value="10.1.4.0/24&lt;br&gt;subnet_04" style="outlineConnect=0;gradientColor=none;html=1;whiteSpace=wrap;fontSize=12;fontStyle=0;shape=mxgraph.aws4.group;grIcon=mxgraph.aws4.group_subnet;strokeColor=#879196;fillColor=none;verticalAlign=top;align=left;spacingLeft=30;fontColor=#879196;dashed=0;" vertex="1" parent="1">
          <mxGeometry x="504.5" y="517" width="137.5" height="230" as="geometry" />
        </mxCell>
        <mxCell id="Rn8A0Fxg7lWSqy2aSkI7-81" value="EC2 instance contents" style="points=[[0,0],[0.25,0],[0.5,0],[0.75,0],[1,0],[1,0.25],[1,0.5],[1,0.75],[1,1],[0.75,1],[0.5,1],[0.25,1],[0,1],[0,0.75],[0,0.5],[0,0.25]];outlineConnect=0;gradientColor=none;html=1;whiteSpace=wrap;fontSize=12;fontStyle=0;shape=mxgraph.aws4.group;grIcon=mxgraph.aws4.group_ec2_instance_contents;strokeColor=#D86613;fillColor=none;verticalAlign=top;align=left;spacingLeft=30;fontColor=#D86613;dashed=0;" vertex="1" parent="1">
          <mxGeometry x="507.5" y="585" width="130" height="130" as="geometry" />
        </mxCell>
        <mxCell id="Rn8A0Fxg7lWSqy2aSkI7-4" value="10.1.2.0/24&lt;br&gt;subnet_02" style="outlineConnect=0;gradientColor=none;html=1;whiteSpace=wrap;fontSize=12;fontStyle=0;shape=mxgraph.aws4.group;grIcon=mxgraph.aws4.group_subnet;strokeColor=#879196;fillColor=none;verticalAlign=top;align=left;spacingLeft=30;fontColor=#879196;dashed=0;" vertex="1" parent="1">
          <mxGeometry x="509.5" y="363" width="128" height="128" as="geometry" />
        </mxCell>
        <mxCell id="Rn8A0Fxg7lWSqy2aSkI7-7" value="10.1.1.0/24&lt;br&gt;subnet_01" style="outlineConnect=0;gradientColor=none;html=1;whiteSpace=wrap;fontSize=12;fontStyle=0;shape=mxgraph.aws4.group;grIcon=mxgraph.aws4.group_subnet;strokeColor=#879196;fillColor=none;verticalAlign=top;align=left;spacingLeft=30;fontColor=#879196;dashed=0;" vertex="1" parent="1">
          <mxGeometry x="231.5" y="365" width="123.5" height="129" as="geometry" />
        </mxCell>
        <mxCell id="Rn8A0Fxg7lWSqy2aSkI7-8" value="" style="outlineConnect=0;dashed=0;verticalLabelPosition=bottom;verticalAlign=top;align=center;html=1;shape=mxgraph.aws3.internet_gateway;fillColor=#F58534;gradientColor=none;" vertex="1" parent="1">
          <mxGeometry x="405.5" y="275" width="41.21" height="43" as="geometry" />
        </mxCell>
        <mxCell id="Rn8A0Fxg7lWSqy2aSkI7-9" value="IGW" style="text;html=1;align=center;verticalAlign=middle;resizable=0;points=[];autosize=1;" vertex="1" parent="1">
          <mxGeometry x="433.5" y="266" width="34" height="18" as="geometry" />
        </mxCell>
        <mxCell id="Rn8A0Fxg7lWSqy2aSkI7-10" value="" style="outlineConnect=0;dashed=0;verticalLabelPosition=bottom;verticalAlign=top;align=center;html=1;shape=mxgraph.aws3.internet;fillColor=#D2D3D3;gradientColor=none;" vertex="1" parent="1">
          <mxGeometry x="380.25" y="142" width="79.5" height="79.5" as="geometry" />
        </mxCell>
        <mxCell id="Rn8A0Fxg7lWSqy2aSkI7-11" value="" style="outlineConnect=0;dashed=0;verticalLabelPosition=bottom;verticalAlign=top;align=center;html=1;shape=mxgraph.aws3.application_load_balancer;fillColor=#F58534;gradientColor=none;" vertex="1" parent="1">
          <mxGeometry x="516" y="446" width="40.25" height="42" as="geometry" />
        </mxCell>
        <mxCell id="Rn8A0Fxg7lWSqy2aSkI7-14" value="" style="outlineConnect=0;dashed=0;verticalLabelPosition=bottom;verticalAlign=top;align=center;html=1;shape=mxgraph.aws3.application_load_balancer;fillColor=#F58534;gradientColor=none;" vertex="1" parent="1">
          <mxGeometry x="406.46" y="428" width="40.25" height="42" as="geometry" />
        </mxCell>
        <mxCell id="Rn8A0Fxg7lWSqy2aSkI7-15" value="ALB" style="text;html=1;align=center;verticalAlign=middle;resizable=0;points=[];autosize=1;" vertex="1" parent="1">
          <mxGeometry x="307" y="425" width="33" height="18" as="geometry" />
        </mxCell>
        <mxCell id="Rn8A0Fxg7lWSqy2aSkI7-16" value="ALB" style="text;html=1;align=center;verticalAlign=middle;resizable=0;points=[];autosize=1;" vertex="1" parent="1">
          <mxGeometry x="426.75" y="410" width="33" height="18" as="geometry" />
        </mxCell>
        <mxCell id="Rn8A0Fxg7lWSqy2aSkI7-17" value="ALB" style="text;html=1;align=center;verticalAlign=middle;resizable=0;points=[];autosize=1;" vertex="1" parent="1">
          <mxGeometry x="519.62" y="428" width="33" height="18" as="geometry" />
        </mxCell>
        <mxCell id="Rn8A0Fxg7lWSqy2aSkI7-18" value="" style="endArrow=classic;html=1;exitX=0.6;exitY=1;exitDx=0;exitDy=0;exitPerimeter=0;" edge="1" parent="1" source="Rn8A0Fxg7lWSqy2aSkI7-10" target="Rn8A0Fxg7lWSqy2aSkI7-8">
          <mxGeometry width="50" height="50" relative="1" as="geometry">
            <mxPoint x="409" y="250" as="sourcePoint" />
            <mxPoint x="459" y="200" as="targetPoint" />
          </mxGeometry>
        </mxCell>
        <mxCell id="Rn8A0Fxg7lWSqy2aSkI7-19" value="" style="endArrow=classic;html=1;exitX=0.5;exitY=1;exitDx=0;exitDy=0;exitPerimeter=0;" edge="1" parent="1" source="Rn8A0Fxg7lWSqy2aSkI7-8" target="Rn8A0Fxg7lWSqy2aSkI7-14">
          <mxGeometry width="50" height="50" relative="1" as="geometry">
            <mxPoint x="400.3199999999998" y="322" as="sourcePoint" />
            <mxPoint x="399.00390000000027" y="375.5" as="targetPoint" />
          </mxGeometry>
        </mxCell>
        <mxCell id="Rn8A0Fxg7lWSqy2aSkI7-20" value="" style="endArrow=classic;html=1;exitX=1;exitY=0.5;exitDx=0;exitDy=0;exitPerimeter=0;" edge="1" parent="1" source="Rn8A0Fxg7lWSqy2aSkI7-14" target="Rn8A0Fxg7lWSqy2aSkI7-11">
          <mxGeometry width="50" height="50" relative="1" as="geometry">
            <mxPoint x="457.355" y="406.9999999999998" as="sourcePoint" />
            <mxPoint x="457.00340764331213" y="464.5" as="targetPoint" />
          </mxGeometry>
        </mxCell>
        <mxCell id="Rn8A0Fxg7lWSqy2aSkI7-21" value="" style="outlineConnect=0;dashed=0;verticalLabelPosition=bottom;verticalAlign=top;align=center;html=1;shape=mxgraph.aws3.vpc_nat_gateway;fillColor=#F58534;gradientColor=none;" vertex="1" parent="1">
          <mxGeometry x="240" y="445" width="41.21" height="43" as="geometry" />
        </mxCell>
        <mxCell id="Rn8A0Fxg7lWSqy2aSkI7-22" value="" style="outlineConnect=0;dashed=0;verticalLabelPosition=bottom;verticalAlign=top;align=center;html=1;shape=mxgraph.aws3.vpc_nat_gateway;fillColor=#F58534;gradientColor=none;" vertex="1" parent="1">
          <mxGeometry x="590" y="445" width="41.21" height="43" as="geometry" />
        </mxCell>
        <mxCell id="Rn8A0Fxg7lWSqy2aSkI7-23" value="10.1.6.0/24&lt;br&gt;subnet_06" style="outlineConnect=0;gradientColor=none;html=1;whiteSpace=wrap;fontSize=12;fontStyle=0;shape=mxgraph.aws4.group;grIcon=mxgraph.aws4.group_subnet;strokeColor=#879196;fillColor=none;verticalAlign=top;align=left;spacingLeft=30;fontColor=#879196;dashed=0;" vertex="1" parent="1">
          <mxGeometry x="501.21" y="824" width="138.79" height="118" as="geometry" />
        </mxCell>
        <mxCell id="Rn8A0Fxg7lWSqy2aSkI7-24" value="10.1.5.0/24&lt;br&gt;subnet_05" style="outlineConnect=0;gradientColor=none;html=1;whiteSpace=wrap;fontSize=12;fontStyle=0;shape=mxgraph.aws4.group;grIcon=mxgraph.aws4.group_subnet;strokeColor=#879196;fillColor=none;verticalAlign=top;align=left;spacingLeft=30;fontColor=#879196;dashed=0;" vertex="1" parent="1">
          <mxGeometry x="222" y="828" width="136" height="119" as="geometry" />
        </mxCell>
        <mxCell id="Rn8A0Fxg7lWSqy2aSkI7-25" value="NAT GW" style="text;html=1;align=center;verticalAlign=middle;resizable=0;points=[];autosize=1;" vertex="1" parent="1">
          <mxGeometry x="576" y="425" width="57" height="18" as="geometry" />
        </mxCell>
        <mxCell id="Rn8A0Fxg7lWSqy2aSkI7-26" value="NAT GW" style="text;html=1;align=center;verticalAlign=middle;resizable=0;points=[];autosize=1;" vertex="1" parent="1">
          <mxGeometry x="232.11" y="425" width="57" height="18" as="geometry" />
        </mxCell>
        <mxCell id="Rn8A0Fxg7lWSqy2aSkI7-27" value="" style="endArrow=classic;html=1;exitX=0;exitY=0.5;exitDx=0;exitDy=0;exitPerimeter=0;" edge="1" parent="1" source="Rn8A0Fxg7lWSqy2aSkI7-14" target="Rn8A0Fxg7lWSqy2aSkI7-28">
          <mxGeometry width="50" height="50" relative="1" as="geometry">
            <mxPoint x="434.105" y="325.9999999999998" as="sourcePoint" />
            <mxPoint x="433.75340764331213" y="383.5" as="targetPoint" />
          </mxGeometry>
        </mxCell>
        <mxCell id="Rn8A0Fxg7lWSqy2aSkI7-28" value="" style="outlineConnect=0;dashed=0;verticalLabelPosition=bottom;verticalAlign=top;align=center;html=1;shape=mxgraph.aws3.application_load_balancer;fillColor=#F58534;gradientColor=none;" vertex="1" parent="1">
          <mxGeometry x="307" y="446" width="40.25" height="42" as="geometry" />
        </mxCell>
        <mxCell id="Rn8A0Fxg7lWSqy2aSkI7-29" value="" style="outlineConnect=0;dashed=0;verticalLabelPosition=bottom;verticalAlign=top;align=center;html=1;shape=mxgraph.aws3.rds;fillColor=#2E73B8;gradientColor=none;" vertex="1" parent="1">
          <mxGeometry x="243.78" y="883" width="45.33" height="51" as="geometry" />
        </mxCell>
        <mxCell id="Rn8A0Fxg7lWSqy2aSkI7-30" value="" style="outlineConnect=0;dashed=0;verticalLabelPosition=bottom;verticalAlign=top;align=center;html=1;shape=mxgraph.aws3.rds;fillColor=#2E73B8;gradientColor=none;" vertex="1" parent="1">
          <mxGeometry x="520.33" y="883" width="45.33" height="51" as="geometry" />
        </mxCell>
        <mxCell id="Rn8A0Fxg7lWSqy2aSkI7-31" value="" style="dashed=0;html=1;shape=mxgraph.aws3.permissions;fillColor=#D9A741;gradientColor=none;dashed=0;" vertex="1" parent="1">
          <mxGeometry x="336.15000000000003" y="502" width="18.85" height="22" as="geometry" />
        </mxCell>
        <mxCell id="Rn8A0Fxg7lWSqy2aSkI7-32" value="" style="dashed=0;html=1;shape=mxgraph.aws3.permissions;fillColor=#D9A741;gradientColor=none;dashed=0;" vertex="1" parent="1">
          <mxGeometry x="618.6500000000001" y="502" width="18.85" height="22" as="geometry" />
        </mxCell>
        <mxCell id="Rn8A0Fxg7lWSqy2aSkI7-33" value="" style="dashed=0;html=1;shape=mxgraph.aws3.permissions;fillColor=#D9A741;gradientColor=none;dashed=0;" vertex="1" parent="1">
          <mxGeometry x="614.1500000000001" y="347" width="18.85" height="22" as="geometry" />
        </mxCell>
        <mxCell id="Rn8A0Fxg7lWSqy2aSkI7-34" value="" style="dashed=0;html=1;shape=mxgraph.aws3.permissions;fillColor=#D9A741;gradientColor=none;dashed=0;" vertex="1" parent="1">
          <mxGeometry x="331.0000000000001" y="349" width="18.85" height="22" as="geometry" />
        </mxCell>
        <mxCell id="Rn8A0Fxg7lWSqy2aSkI7-35" value="" style="dashed=0;html=1;shape=mxgraph.aws3.permissions;fillColor=#D9A741;gradientColor=none;dashed=0;" vertex="1" parent="1">
          <mxGeometry x="614.1500000000001" y="810" width="18.85" height="22" as="geometry" />
        </mxCell>
        <mxCell id="Rn8A0Fxg7lWSqy2aSkI7-36" value="" style="dashed=0;html=1;shape=mxgraph.aws3.permissions;fillColor=#D9A741;gradientColor=none;dashed=0;" vertex="1" parent="1">
          <mxGeometry x="333.0000000000001" y="813" width="18.85" height="22" as="geometry" />
        </mxCell>
        <mxCell id="Rn8A0Fxg7lWSqy2aSkI7-37" value="RDS" style="text;html=1;align=center;verticalAlign=middle;resizable=0;points=[];autosize=1;" vertex="1" parent="1">
          <mxGeometry x="560" y="879" width="35" height="18" as="geometry" />
        </mxCell>
        <mxCell id="Rn8A0Fxg7lWSqy2aSkI7-38" value="RDS" style="text;html=1;align=center;verticalAlign=middle;resizable=0;points=[];autosize=1;" vertex="1" parent="1">
          <mxGeometry x="286.56" y="879" width="35" height="18" as="geometry" />
        </mxCell>
        <mxCell id="Rn8A0Fxg7lWSqy2aSkI7-41" value="" style="endArrow=classic;startArrow=classic;html=1;" edge="1" parent="1" source="Rn8A0Fxg7lWSqy2aSkI7-29">
          <mxGeometry width="50" height="50" relative="1" as="geometry">
            <mxPoint x="208" y="769" as="sourcePoint" />
            <mxPoint x="269" y="710" as="targetPoint" />
          </mxGeometry>
        </mxCell>
        <mxCell id="Rn8A0Fxg7lWSqy2aSkI7-42" value="" style="endArrow=classic;html=1;entryX=0.25;entryY=0;entryDx=0;entryDy=0;" edge="1" parent="1" source="Rn8A0Fxg7lWSqy2aSkI7-11" target="Rn8A0Fxg7lWSqy2aSkI7-81">
          <mxGeometry width="50" height="50" relative="1" as="geometry">
            <mxPoint x="407" y="540" as="sourcePoint" />
            <mxPoint x="523.1599999999999" y="634.6995999999999" as="targetPoint" />
          </mxGeometry>
        </mxCell>
        <mxCell id="Rn8A0Fxg7lWSqy2aSkI7-43" value="" style="endArrow=classic;html=1;exitX=0.5;exitY=1;exitDx=0;exitDy=0;exitPerimeter=0;entryX=0.75;entryY=0;entryDx=0;entryDy=0;" edge="1" parent="1" source="Rn8A0Fxg7lWSqy2aSkI7-28" target="Rn8A0Fxg7lWSqy2aSkI7-82">
          <mxGeometry width="50" height="50" relative="1" as="geometry">
            <mxPoint x="317" y="573" as="sourcePoint" />
            <mxPoint x="367" y="523" as="targetPoint" />
          </mxGeometry>
        </mxCell>
        <mxCell id="Rn8A0Fxg7lWSqy2aSkI7-44" value="" style="outlineConnect=0;dashed=0;verticalLabelPosition=bottom;verticalAlign=top;align=center;html=1;shape=mxgraph.aws3.auto_scaling;fillColor=#F58534;gradientColor=none;" vertex="1" parent="1">
          <mxGeometry x="404.40999999999997" y="618.25" width="43.39" height="41.75" as="geometry" />
        </mxCell>
        <mxCell id="Rn8A0Fxg7lWSqy2aSkI7-45" value="" style="endArrow=none;dashed=1;html=1;dashPattern=1 3;strokeWidth=2;entryX=0;entryY=0.5;entryDx=0;entryDy=0;entryPerimeter=0;exitX=1;exitY=0.5;exitDx=0;exitDy=0;" edge="1" parent="1" source="Rn8A0Fxg7lWSqy2aSkI7-82" target="Rn8A0Fxg7lWSqy2aSkI7-44">
          <mxGeometry width="50" height="50" relative="1" as="geometry">
            <mxPoint x="360" y="647" as="sourcePoint" />
            <mxPoint x="321" y="733" as="targetPoint" />
          </mxGeometry>
        </mxCell>
        <mxCell id="Rn8A0Fxg7lWSqy2aSkI7-46" value="" style="endArrow=none;dashed=1;html=1;dashPattern=1 3;strokeWidth=2;exitX=1;exitY=0.5;exitDx=0;exitDy=0;exitPerimeter=0;" edge="1" parent="1" source="Rn8A0Fxg7lWSqy2aSkI7-44" target="Rn8A0Fxg7lWSqy2aSkI7-81">
          <mxGeometry width="50" height="50" relative="1" as="geometry">
            <mxPoint x="417" y="811" as="sourcePoint" />
            <mxPoint x="523.1599999999999" y="649.3026798047463" as="targetPoint" />
          </mxGeometry>
        </mxCell>
        <mxCell id="Rn8A0Fxg7lWSqy2aSkI7-47" value="ASG" style="text;html=1;align=center;verticalAlign=middle;resizable=0;points=[];autosize=1;" vertex="1" parent="1">
          <mxGeometry x="432.5" y="600.25" width="35" height="18" as="geometry" />
        </mxCell>
        <mxCell id="Rn8A0Fxg7lWSqy2aSkI7-48" value="" style="endArrow=classic;html=1;exitX=1;exitY=0.5;exitDx=0;exitDy=0;exitPerimeter=0;" edge="1" parent="1" source="Rn8A0Fxg7lWSqy2aSkI7-29" target="Rn8A0Fxg7lWSqy2aSkI7-30">
          <mxGeometry width="50" height="50" relative="1" as="geometry">
            <mxPoint x="388" y="1105" as="sourcePoint" />
            <mxPoint x="438" y="1055" as="targetPoint" />
          </mxGeometry>
        </mxCell>
        <mxCell id="Rn8A0Fxg7lWSqy2aSkI7-49" value="Multi - AZ" style="text;html=1;align=center;verticalAlign=middle;resizable=0;points=[];autosize=1;" vertex="1" parent="1">
          <mxGeometry x="384.75" y="888" width="61" height="18" as="geometry" />
        </mxCell>
        <mxCell id="Rn8A0Fxg7lWSqy2aSkI7-50" value="" style="endArrow=classic;html=1;entryX=1;entryY=0.5;entryDx=0;entryDy=0;entryPerimeter=0;exitX=0.145;exitY=0.145;exitDx=0;exitDy=0;exitPerimeter=0;" edge="1" parent="1" source="Rn8A0Fxg7lWSqy2aSkI7-22" target="Rn8A0Fxg7lWSqy2aSkI7-8">
          <mxGeometry width="50" height="50" relative="1" as="geometry">
            <mxPoint x="487" y="331" as="sourcePoint" />
            <mxPoint x="537" y="281" as="targetPoint" />
            <Array as="points">
              <mxPoint x="493" y="393" />
            </Array>
          </mxGeometry>
        </mxCell>
        <mxCell id="Rn8A0Fxg7lWSqy2aSkI7-51" value="" style="endArrow=classic;html=1;entryX=0;entryY=0.5;entryDx=0;entryDy=0;entryPerimeter=0;exitX=0.855;exitY=0.145;exitDx=0;exitDy=0;exitPerimeter=0;" edge="1" parent="1" source="Rn8A0Fxg7lWSqy2aSkI7-21" target="Rn8A0Fxg7lWSqy2aSkI7-8">
          <mxGeometry width="50" height="50" relative="1" as="geometry">
            <mxPoint x="313" y="320" as="sourcePoint" />
            <mxPoint x="363" y="270" as="targetPoint" />
            <Array as="points">
              <mxPoint x="366" y="392" />
            </Array>
          </mxGeometry>
        </mxCell>
        <mxCell id="Rn8A0Fxg7lWSqy2aSkI7-52" value="" style="outlineConnect=0;dashed=0;verticalLabelPosition=bottom;verticalAlign=top;align=center;html=1;shape=mxgraph.aws3.router;fillColor=#F58534;gradientColor=none;" vertex="1" parent="1">
          <mxGeometry x="456" y="329" width="23.96" height="25" as="geometry" />
        </mxCell>
        <mxCell id="Rn8A0Fxg7lWSqy2aSkI7-53" value="" style="outlineConnect=0;dashed=0;verticalLabelPosition=bottom;verticalAlign=top;align=center;html=1;shape=mxgraph.aws3.router;fillColor=#F58534;gradientColor=none;" vertex="1" parent="1">
          <mxGeometry x="374.34000000000003" y="329" width="23.96" height="25" as="geometry" />
        </mxCell>
        <mxCell id="Rn8A0Fxg7lWSqy2aSkI7-79" value="" style="endArrow=classic;startArrow=classic;html=1;" edge="1" parent="1" source="Rn8A0Fxg7lWSqy2aSkI7-29" target="Rn8A0Fxg7lWSqy2aSkI7-81">
          <mxGeometry width="50" height="50" relative="1" as="geometry">
            <mxPoint x="405" y="817" as="sourcePoint" />
            <mxPoint x="523.1599999999999" y="668.540399566082" as="targetPoint" />
          </mxGeometry>
        </mxCell>
        <mxCell id="Rn8A0Fxg7lWSqy2aSkI7-83" value="" style="shape=image;html=1;verticalAlign=top;verticalLabelPosition=bottom;labelBackgroundColor=#ffffff;imageAspect=0;aspect=fixed;image=https://cdn4.iconfinder.com/data/icons/logos-brands-5/24/nginx-128.png" vertex="1" parent="1">
          <mxGeometry x="307" y="615" width="34" height="34" as="geometry" />
        </mxCell>
        <mxCell id="Rn8A0Fxg7lWSqy2aSkI7-84" value="" style="shape=image;html=1;verticalAlign=top;verticalLabelPosition=bottom;labelBackgroundColor=#ffffff;imageAspect=0;aspect=fixed;image=https://cdn4.iconfinder.com/data/icons/logos-brands-5/24/nginx-128.png" vertex="1" parent="1">
          <mxGeometry x="590" y="615.5" width="34" height="34" as="geometry" />
        </mxCell>
        <mxCell id="Rn8A0Fxg7lWSqy2aSkI7-85" value="" style="shape=image;html=1;verticalAlign=top;verticalLabelPosition=bottom;labelBackgroundColor=#ffffff;imageAspect=0;aspect=fixed;image=https://cdn4.iconfinder.com/data/icons/logos-and-brands/512/97_Docker_logo_logos-128.png" vertex="1" parent="1">
          <mxGeometry x="550.5" y="630" width="44" height="44" as="geometry" />
        </mxCell>
        <mxCell id="Rn8A0Fxg7lWSqy2aSkI7-86" value="" style="shape=image;html=1;verticalAlign=top;verticalLabelPosition=bottom;labelBackgroundColor=#ffffff;imageAspect=0;aspect=fixed;image=https://cdn4.iconfinder.com/data/icons/logos-and-brands/512/97_Docker_logo_logos-128.png" vertex="1" parent="1">
          <mxGeometry x="263" y="630" width="44" height="44" as="geometry" />
        </mxCell>
        <mxCell id="Rn8A0Fxg7lWSqy2aSkI7-87" value="" style="shape=image;html=1;verticalAlign=top;verticalLabelPosition=bottom;labelBackgroundColor=#ffffff;imageAspect=0;aspect=fixed;image=https://cdn4.iconfinder.com/data/icons/logos-brands-5/24/flask-128.png" vertex="1" parent="1">
          <mxGeometry x="232.11" y="660" width="39" height="39" as="geometry" />
        </mxCell>
        <mxCell id="Rn8A0Fxg7lWSqy2aSkI7-88" value="" style="shape=image;html=1;verticalAlign=top;verticalLabelPosition=bottom;labelBackgroundColor=#ffffff;imageAspect=0;aspect=fixed;image=https://cdn4.iconfinder.com/data/icons/logos-brands-5/24/flask-128.png" vertex="1" parent="1">
          <mxGeometry x="519.62" y="670" width="36.49" height="36.49" as="geometry" />
        </mxCell>
        <mxCell id="Rn8A0Fxg7lWSqy2aSkI7-89" value="" style="shape=image;html=1;verticalAlign=top;verticalLabelPosition=bottom;labelBackgroundColor=#ffffff;imageAspect=0;aspect=fixed;image=https://cdn2.iconfinder.com/data/icons/amazon-aws-stencils/100/Storage__Content_Delivery_Amazon_S3_Bucket_with_Objects-128.png" vertex="1" parent="1">
          <mxGeometry x="398.59" y="660.24" width="56" height="56" as="geometry" />
        </mxCell>
        <mxCell id="Rn8A0Fxg7lWSqy2aSkI7-90" value="app-code" style="text;html=1;align=center;verticalAlign=middle;resizable=0;points=[];autosize=1;strokeColor=none;" vertex="1" parent="1">
          <mxGeometry x="391.59" y="706.49" width="70" height="20" as="geometry" />
        </mxCell>
        <mxCell id="Rn8A0Fxg7lWSqy2aSkI7-91" value="" style="endArrow=none;dashed=1;html=1;dashPattern=1 3;strokeWidth=2;" edge="1" parent="1" source="Rn8A0Fxg7lWSqy2aSkI7-89" target="Rn8A0Fxg7lWSqy2aSkI7-81">
          <mxGeometry width="50" height="50" relative="1" as="geometry">
            <mxPoint x="457.79999999999995" y="649.125" as="sourcePoint" />
            <mxPoint x="517.5" y="654.3313953488373" as="targetPoint" />
          </mxGeometry>
        </mxCell>
        <mxCell id="Rn8A0Fxg7lWSqy2aSkI7-92" value="" style="endArrow=none;dashed=1;html=1;dashPattern=1 3;strokeWidth=2;" edge="1" parent="1" source="Rn8A0Fxg7lWSqy2aSkI7-82" target="Rn8A0Fxg7lWSqy2aSkI7-89">
          <mxGeometry width="50" height="50" relative="1" as="geometry">
            <mxPoint x="362" y="655" as="sourcePoint" />
            <mxPoint x="414.40999999999985" y="649.125" as="targetPoint" />
          </mxGeometry>
        </mxCell>
        <mxCell id="Rn8A0Fxg7lWSqy2aSkI7-93" value="TODO:&lt;br&gt;Vault&lt;br&gt;ECR&lt;br&gt;Bastion host&lt;br&gt;ASG tresholds&lt;br&gt;SSH&lt;br&gt;" style="text;html=1;align=center;verticalAlign=middle;resizable=0;points=[];autosize=1;strokeColor=none;" vertex="1" parent="1">
          <mxGeometry x="715" y="425" width="90" height="90" as="geometry" />
        </mxCell>
      </root>
    </mxGraphModel>
  </diagram>
</mxfile>
